<?xml version="1.0" encoding="iso-8859-1"?>
<!-- Generator: Adobe Illustrator 19.0.0, SVG Export Plug-In . SVG Version: 6.00 Build 0)  -->
<svg version="1.1" id="Capa_1" xmlns="http://www.w3.org/2000/svg" xmlns:xlink="http://www.w3.org/1999/xlink" x="0px" y="0px"
	 viewBox="0 0 155.301 155.301" style="enable-background:new 0 0 155.301 155.301;" xml:space="preserve">
<g>
	<circle style="fill:#98E2ED;" cx="77.651" cy="77.65" r="77.65"/>
	<g>
		<g>
			<path style="fill:#FFBA00;" d="M73.998,120.824v7.422c0,0-8.649-0.917-8.776,2.063c-0.125,2.98,12.101,0.458,12.101,0.458
				s11.997,2.522,11.87-0.458c-0.125-2.98-9.194-2.063-9.194-2.063v-7.387c0,0.106-1.977,0.166-2.863,0.166
				C76.155,121.025,74.998,120.954,73.998,120.824z"/>
			<path style="fill:#AB6609;" d="M58.102,91.813c-1.863,1.654-4.15,4.215-6.09,7.995c-4.045,7.879-4.732,16.53,2.693,12.539
				c0,0,0.605,6.406,5.814,3.184c0.539-0.334,0.975-0.892,1.33-1.605c-3.322-3.735-5.346-8.654-5.346-14.047
				C56.504,97.022,57.074,94.3,58.102,91.813z"/>
			<path style="fill:#AB6609;" d="M97.201,91.813c1.025,2.486,1.596,5.209,1.596,8.065c0,5.394-2.021,10.312-5.346,14.047
				c0.355,0.713,0.789,1.271,1.332,1.605c5.209,3.222,5.814-3.184,5.814-3.184c7.424,3.991,6.736-4.659,2.691-12.539
				C101.35,96.029,99.063,93.467,97.201,91.813z"/>
			<path style="fill:#C6772B;" d="M97.201,91.813c-0.367-0.888-0.795-1.744-1.273-2.566c-0.002,0.002-0.004,0.003-0.006,0.004
				c0.564,0.969,1.059,1.982,1.467,3.042c-0.686,0.42-1.383,0.824-2.092,1.212c-0.771,0.349-1.574,0.713-2.434,1.073
				c-0.178,0.408-0.381,0.823-0.619,1.248c-1.426,2.536-5.023,5.83-14.422,5.83c-9.398,0-13.186-3.293-14.611-5.83
				c-0.375-0.669-0.67-1.318-0.906-1.947c-1.389-0.566-2.793-1.167-4.283-1.778c0.389-0.984,0.852-1.931,1.377-2.837
				c-0.008-0.005-0.018-0.011-0.025-0.017c-0.479,0.822-0.906,1.678-1.272,2.566c-1.027,2.486-1.598,5.209-1.598,8.065
				c0,5.394,2.023,10.312,5.346,14.047c3.269,3.675,7.799,6.199,12.914,6.898c0.943,0.129,1.906,0.201,2.887,0.201
				c0.885,0,1.756-0.061,2.613-0.166c5.227-0.645,9.859-3.192,13.188-6.933c3.324-3.735,5.346-8.654,5.346-14.047
				C98.797,97.022,98.227,94.3,97.201,91.813z"/>
			<path style="fill:#FFFFFF;" d="M59.399,89.264c-0.525,0.906-0.988,1.853-1.377,2.837c1.49,0.611,2.895,1.212,4.283,1.778
				c-0.418-1.124-0.633-2.182-0.705-3.174C60.844,90.256,60.112,89.773,59.399,89.264z"/>
			<path style="fill:#FFFFFF;" d="M93.842,90.624c-0.068,1.217-0.355,2.536-0.979,3.954c0.859-0.359,1.662-0.724,2.434-1.073
				c0.709-0.388,1.406-0.792,2.092-1.212c-0.408-1.059-0.902-2.073-1.467-3.042C95.246,89.734,94.555,90.195,93.842,90.624z"/>
			<path style="fill:#6CB38A;" d="M61.6,90.705c-0.35-4.82,2.617-8.07,1.24-9.66c-2.771-3.207-7.898-4.027-7.176-7.163
				c0.725-3.134,13.064-0.723,15.719-1.688c2.625-0.957,3.6-6.392,6.189-6.501c0.027-0.001,0.051-0.01,0.078-0.01
				c0.027,0,0.051,0.009,0.078,0.01c2.59,0.11,3.564,5.545,6.191,6.501c2.652,0.965,14.992-1.446,15.717,1.688
				c0.723,3.135-4.391,3.955-7.162,7.163c-1.367,1.581,1.639,4.803,1.367,9.58c0.713-0.429,1.404-0.89,2.08-1.373
				c0.002-0.002,0.004-0.003,0.006-0.004c7.979-5.707,13.184-15.043,13.184-25.601c0-16.706-13.023-30.364-29.469-31.392
				c0.686-1.532,1.668-2.857,2.488-4.315c0.27-0.477-0.078-1.338-0.74-1.122c-1.021,0.336-1.896,0.88-2.631,1.568
				c0.66-1.527,1.541-2.96,2.371-4.419c0.104-0.181-0.029-0.492-0.275-0.417c-3.693,1.13-5.418,4.872-5.947,8.763
				C58.817,33.702,46.19,47.196,46.19,63.646c0,10.558,5.205,19.894,13.184,25.601c0.008,0.006,0.018,0.011,0.025,0.017
				C60.112,89.773,60.844,90.256,61.6,90.705z M89.272,61.432c2.297,0,4.16,1.863,4.16,4.161c0,2.298-1.863,4.161-4.16,4.161
				c-2.299,0-4.16-1.863-4.16-4.161C85.112,63.294,86.973,61.432,89.272,61.432z M65.877,61.432c2.297,0,4.16,1.863,4.16,4.161
				c0,2.298-1.863,4.161-4.16,4.161c-2.301,0-4.162-1.863-4.162-4.161C61.715,63.294,63.576,61.432,65.877,61.432z"/>
			<path style="fill:#FFFFFF;" d="M65.877,69.753c2.297,0,4.16-1.863,4.16-4.161c0-2.298-1.863-4.161-4.16-4.161
				c-2.301,0-4.162,1.863-4.162,4.161C61.715,67.89,63.576,69.753,65.877,69.753z M65.877,63.738c0.988,0,1.789,0.778,1.842,1.754
				c-0.301-0.288-0.73-0.47-1.301-0.47c-1.086,0-1.822,0.669-2.15,1.479c-0.152-0.27-0.246-0.576-0.246-0.907
				C64.022,64.568,64.85,63.738,65.877,63.738z"/>
			<path style="fill:#353A42;" d="M66.418,65.021c0.57,0,1,0.183,1.301,0.47c-0.053-0.976-0.854-1.754-1.842-1.754
				c-1.027,0-1.855,0.831-1.855,1.854c0,0.332,0.094,0.638,0.246,0.907C64.596,65.69,65.332,65.021,66.418,65.021z"/>
			<path style="fill:#FFFFFF;" d="M89.272,69.753c2.297,0,4.16-1.863,4.16-4.161c0-2.298-1.863-4.161-4.16-4.161
				c-2.299,0-4.16,1.863-4.16,4.161C85.112,67.89,86.973,69.753,89.272,69.753z M89.272,63.738c1.023,0,1.854,0.831,1.854,1.854
				c0,0.332-0.094,0.638-0.246,0.907c-0.328-0.81-1.066-1.479-2.15-1.479c-0.572,0-1.002,0.183-1.303,0.47
				C87.479,64.516,88.281,63.738,89.272,63.738z"/>
			<path style="fill:#353A42;" d="M90.879,66.499c0.152-0.27,0.246-0.576,0.246-0.907c0-1.024-0.83-1.854-1.854-1.854
				c-0.99,0-1.793,0.778-1.846,1.754c0.301-0.288,0.73-0.47,1.303-0.47C89.813,65.021,90.551,65.69,90.879,66.499z"/>
			<path style="fill:#FFBA00;" d="M93.842,90.624c0.271-4.776-2.734-7.999-1.367-9.58c2.771-3.207,7.885-4.027,7.162-7.163
				c-0.725-3.134-13.064-0.723-15.717-1.688c-2.627-0.957-3.602-6.392-6.191-6.501c-0.027-0.001-0.051-0.01-0.078-0.01
				c-0.027,0-0.051,0.009-0.078,0.01c-2.59,0.11-3.564,5.545-6.189,6.501c-2.654,0.965-14.994-1.446-15.719,1.688
				c-0.723,3.135,4.404,3.955,7.176,7.163c1.377,1.59-1.59,4.84-1.24,9.66c0.072,0.992,0.287,2.05,0.705,3.174
				c0.236,0.629,0.531,1.277,0.906,1.947c1.426,2.536,5.213,5.83,14.611,5.83c9.398,0,12.996-3.293,14.422-5.83
				c0.238-0.425,0.441-0.84,0.619-1.248C93.487,93.16,93.774,91.842,93.842,90.624z M67.973,83.433
				c2.252,2.598,0.461,4.098-0.404,3.405C66.207,85.748,67.973,83.433,67.973,83.433z M87.174,83.433c0,0,1.768,2.315,0.404,3.405
				C86.711,87.531,84.92,86.031,87.174,83.433z"/>
			<path style="fill:#C6772B;" d="M67.569,86.838c0.865,0.692,2.656-0.808,0.404-3.405C67.973,83.433,66.207,85.748,67.569,86.838z"
				/>
			<path style="fill:#C6772B;" d="M87.578,86.838c1.363-1.09-0.404-3.405-0.404-3.405C84.92,86.031,86.711,87.531,87.578,86.838z"/>
		</g>
		<path style="opacity:0.3;fill:#FFFFFF;" d="M97.201,91.813c-0.367-0.888-0.795-1.744-1.273-2.566
			c7.979-5.707,13.184-15.043,13.184-25.601c0-16.706-13.023-30.364-29.469-31.392c0.686-1.532,1.668-2.857,2.488-4.315
			c0.27-0.477-0.078-1.338-0.74-1.122c-1.021,0.336-1.896,0.88-2.631,1.568c0.66-1.527,1.541-2.96,2.371-4.419
			c0.104-0.181-0.029-0.492-0.275-0.417c-1.373,0.42-2.473,1.202-3.342,2.218v105.001c0,0,12.035,2.522,11.908-0.458
			c-0.125-2.98-9.158-2.063-9.158-2.063v-7.387c5.227-0.645,9.859-3.192,13.188-6.933c0.355,0.713,0.789,1.271,1.332,1.605
			c5.209,3.222,5.814-3.184,5.814-3.184c7.424,3.991,6.736-4.659,2.691-12.539C101.35,96.029,99.063,93.467,97.201,91.813z"/>
	</g>
</g>
<g>
</g>
<g>
</g>
<g>
</g>
<g>
</g>
<g>
</g>
<g>
</g>
<g>
</g>
<g>
</g>
<g>
</g>
<g>
</g>
<g>
</g>
<g>
</g>
<g>
</g>
<g>
</g>
<g>
</g>
</svg>
